<?xml version="1.0" encoding="UTF-8" standalone="no"?>
<!-- Created with Inkscape (http://www.inkscape.org/) -->

<svg
   width="403.57281"
   height="59.999973"
   viewBox="0 0 106.77864 15.874993"
   version="1.1"
   id="svg1356"
   inkscape:version="1.2.2 (732a01da63, 2022-12-09, custom)"
   sodipodi:docname="totallywired.svg"
   xmlns:inkscape="http://www.inkscape.org/namespaces/inkscape"
   xmlns:sodipodi="http://sodipodi.sourceforge.net/DTD/sodipodi-0.dtd"
   xmlns="http://www.w3.org/2000/svg"
   xmlns:svg="http://www.w3.org/2000/svg">
  <sodipodi:namedview
     id="namedview1358"
     pagecolor="#ffffff"
     bordercolor="#000000"
     borderopacity="0.25"
     inkscape:showpageshadow="2"
     inkscape:pageopacity="0.0"
     inkscape:pagecheckerboard="true"
     inkscape:deskcolor="#d1d1d1"
     inkscape:document-units="px"
     showgrid="false"
     inkscape:zoom="1"
     inkscape:cx="277"
     inkscape:cy="8.5"
     inkscape:window-width="1920"
     inkscape:window-height="1004"
     inkscape:window-x="0"
     inkscape:window-y="0"
     inkscape:window-maximized="1"
     inkscape:current-layer="layer1" />
  <defs
     id="defs1353" />
  <g
     inkscape:label="Layer 1"
     inkscape:groupmode="layer"
     id="layer1"
     transform="translate(-47.923957,-51.659787)">
    <g
       aria-label="TotallyWired"
       id="text236-6-6-5"
       style="font-size:19.6841px;font-family:FreeSans;-inkscape-font-specification:FreeSans;letter-spacing:-0.393683px;word-spacing:0px;fill:#1a1a1a;stroke:#000000;stroke-width:0.154993;stroke-linecap:round">
      <path
         d="m 55.994438,51.895996 v 2.539249 H 53.356769 V 65.674866 H 50.600995 V 54.435245 h -2.677038 v -2.539249 z"
         style="font-weight:600;font-family:Phudu;-inkscape-font-specification:'Phudu Semi-Bold';stroke:none"
         id="path1907" />
      <path
         d="m 55.47979,58.785431 q 0,-2.499881 0.807048,-4.074609 0.807048,-1.574727 2.106199,-2.303039 1.318834,-0.747996 2.854194,-0.747996 1.53536,0 2.83451,0.747996 1.318835,0.728312 2.125883,2.303039 0.807048,1.574728 0.807048,4.074609 0,2.499881 -0.807048,4.074609 -0.807048,1.574727 -2.125883,2.322723 -1.29915,0.728312 -2.83451,0.728312 -1.53536,0 -2.854194,-0.728312 Q 57.093886,64.434767 56.286838,62.86004 55.47979,61.285312 55.47979,58.785431 Z m 2.873879,0 q 0,1.495992 0.373997,2.499881 0.393682,1.003889 1.043258,1.515675 0.669259,0.492103 1.476307,0.492103 0.807048,0 1.476308,-0.492103 0.688943,-0.511786 1.082625,-1.515675 0.393682,-1.003889 0.393682,-2.499881 0,-1.515676 -0.413366,-2.519565 -0.393682,-1.003889 -1.062941,-1.495991 -0.66926,-0.492103 -1.456624,-0.492103 -0.826732,0 -1.495991,0.511787 -0.649576,0.511786 -1.043258,1.515676 -0.373997,0.984204 -0.373997,2.480196 z"
         style="font-weight:600;font-family:Phudu;-inkscape-font-specification:'Phudu Semi-Bold';stroke:none"
         id="path1909" />
      <path
         d="m 74.687492,51.895996 v 2.539249 H 72.049823 V 65.674866 H 69.294049 V 54.435245 h -2.677038 v -2.539249 z"
         style="font-weight:600;font-family:Phudu;-inkscape-font-specification:'Phudu Semi-Bold';stroke:none"
         id="path1911" />
      <path
         d="m 73.663279,65.674866 v -0.452735 l 2.873878,-13.326135 4.901341,0.01968 2.893563,13.306451 v 0.452735 h -2.873879 l -0.629891,-3.464402 h -3.661243 l -0.649575,3.464402 z m 3.877767,-5.885546 h 2.893563 l -0.964521,-5.275339 h -0.964521 z"
         style="font-weight:600;font-family:Phudu;-inkscape-font-specification:'Phudu Semi-Bold';stroke:none"
         id="path1913" />
      <path
         d="m 85.040674,51.895996 h 2.755774 v 11.259305 h 3.759662 v 2.519565 h -6.515436 z"
         style="font-weight:600;font-family:Phudu;-inkscape-font-specification:'Phudu Semi-Bold';stroke:none"
         id="path1915" />
      <path
         d="m 92.382833,51.895996 h 2.755774 v 11.259305 h 3.759663 v 2.519565 h -6.515437 z"
         style="font-weight:600;font-family:Phudu;-inkscape-font-specification:'Phudu Semi-Bold';stroke:none"
         id="path1917" />
      <path
         d="m 97.264464,51.895996 h 2.873876 l 1.7322,6.751646 h 1.10231 l 1.75189,-6.751646 h 2.87388 v 0.452735 L 105.02,61.285312 h -1.20073 v 4.389554 h -2.75577 v -4.36987 h -1.220419 l -2.578617,-8.956265 z"
         style="font-weight:600;font-family:Phudu;-inkscape-font-specification:'Phudu Semi-Bold';stroke:none"
         id="path1919" />
      <path
         d="m 107.5986,53.755911 h 2.85419 l 1.25978,10.058575 h 0.21653 l 1.37789,-10.058575 h 2.67703 l 1.37789,10.058575 h 0.23621 l 1.2401,-10.058575 h 2.85419 v 0.452735 l -2.14556,13.326135 h -3.7203 l -1.06294,-8.720056 h -0.21653 l -1.08262,8.720056 h -3.7203 L 107.5986,54.208646 Z"
         style="font-weight:600;font-family:Phudu;-inkscape-font-specification:'Phudu Semi-Bold';stroke:none"
         id="path1921" />
      <path
         d="m 122.47976,53.755911 h 2.75577 v 13.77887 h -2.75577 z"
         style="font-weight:600;font-family:Phudu;-inkscape-font-specification:'Phudu Semi-Bold';stroke:none"
         id="path1923" />
      <path
         d="m 126.84962,53.755911 h 2.75577 v 13.77887 h -2.79514 z m 4.99976,0 q 1.18105,0 2.08651,0.472419 0.92516,0.452734 1.45663,1.397571 0.53147,0.925152 0.53147,2.322723 0,1.43694 -0.59052,2.401461 -0.57084,0.944836 -1.496,1.436939 -0.90546,0.472418 -1.94872,0.472418 h -3.73998 v -8.503531 z m -2.28336,6.121755 h 1.94873 q 0.47242,0 0.82673,-0.216525 0.35432,-0.216525 0.53147,-0.629891 0.19684,-0.43305 0.19684,-0.964521 0,-0.570839 -0.19684,-0.964521 -0.17715,-0.413366 -0.53147,-0.610207 -0.35431,-0.216525 -0.82673,-0.216525 h -1.94873 z m 1.10231,0.885785 2.63767,-0.05905 2.61799,6.377648 v 0.452735 h -2.87388 z"
         style="font-weight:600;font-family:Phudu;-inkscape-font-specification:'Phudu Semi-Bold';stroke:none"
         id="path1925" />
      <path
         d="m 144.03382,53.755911 v 2.519565 h -4.31081 v 3.365981 q 0.6102,-0.236209 1.27946,-0.373998 0.68895,-0.137789 1.35821,-0.177157 0.66926,-0.03937 1.24009,0.03937 v 2.421145 l -0.17715,0.118104 q -0.45274,-0.137789 -1.06294,-0.157473 -0.59053,-0.01968 -1.27947,0.07874 -0.68894,0.09842 -1.3582,0.334629 v 3.090404 h 4.31081 v 2.519565 h -7.06659 v -13.77887 z"
         style="font-weight:600;font-family:Phudu;-inkscape-font-specification:'Phudu Semi-Bold';stroke:none"
         id="path1927" />
      <path
         d="m 148.93516,53.755911 h -3.79903 v 13.77887 h 3.79903 q 1.63378,0 2.93293,-0.728312 1.29915,-0.747996 2.06683,-2.263671 0.76768,-1.53536 0.76768,-3.897452 0,-2.381776 -0.76768,-3.897452 -0.76768,-1.515675 -2.06683,-2.243987 -1.29915,-0.747996 -2.93293,-0.747996 z m -0.0394,11.160885 h -1.00389 v -8.5429 h 1.00389 q 1.31883,0 2.14556,1.10231 0.84642,1.10231 0.84642,3.16914 0,2.027462 -0.82673,3.149456 -0.82673,1.121994 -2.16525,1.121994 z"
         style="font-weight:600;font-family:Phudu;-inkscape-font-specification:'Phudu Semi-Bold';stroke:none"
         id="path1929" />
    </g>
  </g>
</svg>
